<svg width="148px" height="48px" viewBox="0 0 148 48" version="1.1" xmlns="http://www.w3.org/2000/svg" xmlns:xlink="http://www.w3.org/1999/xlink"><g stroke="none" stroke-width="1" fill="none" fill-rule="evenodd"><g transform="translate(-155.000000, -94.000000)" fill="#fff"><g><g transform="translate(155.000000, 94.000000)"><path d="M17.6736004,1.00349742 L3.78872126,9.08367698 C1.45225441,10.4438064 0,12.9928486 0,15.7364932 L0,25.302918 C0,25.6148666 0.140474694,25.9088584 0.380059813,26.1026257 C0.620873574,26.2968106 0.935405833,26.3665501 1.23191801,26.2951402 L7.26331981,24.8381271 L9.46627426,24.2772877 C9.91186163,24.1632824 10.2239366,23.7557029 10.2239366,23.2879887 L10.2239366,17.4127473 C10.2239366,16.0359138 10.9521115,14.7555463 12.1242357,14.0710967 L18.1367983,10.5603174 L18.1367983,20.8922065 C18.1367983,21.2066608 18.277273,21.5014877 18.5197249,21.6948374 C18.7601292,21.8886047 19.0767091,21.9591794 19.3736309,21.8840111 L24.3307903,20.6512502 C24.778835,20.5401681 25.0941863,20.1305006 25.0941863,19.6602808 L25.0941863,10.7298638 L30.8954226,14.1754972 C32.0519839,14.86287 32.7707393,16.1378086 32.7707393,17.5033669 L32.7707393,20.6825703 L8.98751357,26.5970663 C8.53905937,26.7073133 8.22288893,27.1173983 8.22288893,27.5880357 L8.22288893,30.8557707 C8.22288893,32.965078 9.33890508,34.9253015 11.1359982,35.9718119 L18.6409509,40.3407632 C18.9509782,40.5215848 19.3318571,40.5207496 19.639427,40.3370048 C19.9478161,40.1540951 20.1374364,39.8183432 20.1374364,39.4554471 L20.1374364,30.2302031 L23.0931387,29.48019 L23.0931387,39.3005168 C23.0931387,39.6650833 23.2839877,40.002088 23.5944244,40.1837448 C23.9036326,40.3658193 24.2853306,40.3658193 24.5941292,40.1829096 L31.8877555,35.8816099 C33.6672381,34.831341 34.7726061,32.8761288 34.7726061,30.7814376 L34.7726061,22.2853265 L40.9936282,20.7381114 L40.9936282,32.2935742 C40.9936282,34.2955578 39.9374059,36.1593151 38.2381946,37.1598893 L24.1522277,45.4517931 C22.4530164,46.4506969 20.34221,46.4515321 18.6479132,45.4551339 L3.9513115,36.7021976 L3.9513115,35.904578 C3.9513115,35.6753145 3.83172372,35.4640079 3.63677924,35.3500026 L2.29919805,34.5624054 C2.10425358,34.4484001 1.865078,34.4484001 1.67218127,34.5624054 L0.415280873,35.302396 C0.410366307,35.3061544 0.404223098,35.3078248 0.398489437,35.3124184 L0.314532259,35.3616955 C0.119178239,35.4761184 0,35.6878426 0,35.9162708 L0,37.5002349 C0,37.7307512 0.121225975,37.9420577 0.316170448,38.0560631 L1.67463855,38.8470011 C1.86630665,38.959336 2.10343448,38.959336 2.29674077,38.8470011 L2.94873993,38.4669833 L17.6437034,47.2203372 C18.2395946,47.56987 18.8711164,47.8296184 19.5214774,48 L23.2729299,48 C23.9241099,47.8296184 24.5564508,47.5686172 25.1531611,47.2182492 L39.239128,38.9267631 C41.555527,37.5632928 42.9946759,35.0209323 42.9946759,32.2935742 L42.9946759,19.439787 C42.9946759,19.126168 42.8537916,18.8305058 42.6117492,18.6371561 C42.3717546,18.4433888 42.0572223,18.3744845 41.7566147,18.4488177 L34.771787,20.1852065 L34.771787,17.5033669 C34.771787,15.4149397 33.6721527,13.4651563 31.9016801,12.4123819 L24.5978151,8.07308034 C24.2881974,7.88933549 23.9052708,7.88850029 23.5952435,8.07015712 C23.2848068,8.25223156 23.0931387,8.59007151 23.0931387,8.95463799 L23.0931387,18.8589028 L20.1374364,19.5938821 L20.1374364,8.80054288 C20.1374364,8.43597641 19.9478161,8.09980686 19.639427,7.91815002 C19.3298093,7.73524038 18.94934,7.73440518 18.6397223,7.91522681 L11.1302646,12.3004646 C9.33767644,13.346975 8.22288893,15.305528 8.22288893,17.4127473 L8.22288893,22.4907867 L2.00063813,24.0112753 L2.00063813,15.7364932 C2.00063813,13.7240695 3.06627998,11.8532129 4.78105416,10.8551443 L18.6647046,2.77496476 C20.3516296,1.79401785 22.4456445,1.79485306 24.1321599,2.77663517 L39.049098,11.4372814 L39.049098,12.2144386 C39.049098,12.4428668 39.1686858,12.6541734 39.3628112,12.7681787 L40.7012115,13.5549408 C40.8945178,13.6693637 41.1345124,13.6693637 41.3286378,13.5549408 L42.6862868,12.7564859 C42.8804122,12.6416454 43,12.4303388 43,12.2019105 L43,10.618364 C43,10.3882654 42.878774,10.175706 42.68342,10.0621183 L41.3261805,9.27201545 C41.1324647,9.15884533 40.896156,9.15884533 40.7036688,9.27201545 L40.0336495,9.66080284 L25.1232642,1.00516782 C23.9740747,0.336169546 22.6848201,0 21.3967941,0 C20.1091777,0 18.8211517,0.334916741 17.6736004,1.00349742 Z M12.1287407,34.1995093 C10.9537497,33.515895 10.2239366,32.2346923 10.2239366,30.8557707 L10.2239366,28.3889962 L32.7707393,22.7826904 L32.7707393,30.7814376 C32.7707393,32.1511719 32.0487075,33.4290338 30.886003,34.1155713 L25.0941863,37.5307198 L25.0941863,28.1747664 C25.0941863,27.8611474 24.952483,27.56465 24.7104406,27.3713003 C24.46676,27.1783682 24.15018,27.1094639 23.8516201,27.1846322 L18.8956893,28.4420316 C18.4496924,28.5556194 18.1367983,28.9644516 18.1367983,29.433001 L18.1367983,37.6985958 L12.1287407,34.1995093 Z"></path><path d="M17.6736004,1.00349742 L3.78872126,9.08367698 C1.45225441,10.4438064 0,12.9928486 0,15.7364932 L0,25.302918 C0,25.6148666 0.140474694,25.9088584 0.380059813,26.1026257 C0.620873574,26.2968106 0.935405833,26.3665501 1.23191801,26.2951402 L7.26331981,24.8381271 L9.46627426,24.2772877 C9.91186163,24.1632824 10.2239366,23.7557029 10.2239366,23.2879887 L10.2239366,17.4127473 C10.2239366,16.0359138 10.9521115,14.7555463 12.1242357,14.0710967 L18.1367983,10.5603174 L18.1367983,20.8922065 C18.1367983,21.2066608 18.277273,21.5014877 18.5197249,21.6948374 C18.7601292,21.8886047 19.0767091,21.9591794 19.3736309,21.8840111 L24.3307903,20.6512502 C24.778835,20.5401681 25.0941863,20.1305006 25.0941863,19.6602808 L25.0941863,10.7298638 L30.8954226,14.1754972 C32.0519839,14.86287 32.7707393,16.1378086 32.7707393,17.5033669 L32.7707393,20.6825703 L8.98751357,26.5970663 C8.53905937,26.7073133 8.22288893,27.1173983 8.22288893,27.5880357 L8.22288893,30.8557707 C8.22288893,32.965078 9.33890508,34.9253015 11.1359982,35.9718119 L18.6409509,40.3407632 C18.9509782,40.5215848 19.3318571,40.5207496 19.639427,40.3370048 C19.9478161,40.1540951 20.1374364,39.8183432 20.1374364,39.4554471 L20.1374364,30.2302031 L23.0931387,29.48019 L23.0931387,39.3005168 C23.0931387,39.6650833 23.2839877,40.002088 23.5944244,40.1837448 C23.9036326,40.3658193 24.2853306,40.3658193 24.5941292,40.1829096 L31.8877555,35.8816099 C33.6672381,34.831341 34.7726061,32.8761288 34.7726061,30.7814376 L34.7726061,22.2853265 L40.9936282,20.7381114 L40.9936282,32.2935742 C40.9936282,34.2955578 39.9374059,36.1593151 38.2381946,37.1598893 L24.1522277,45.4517931 C22.4530164,46.4506969 20.34221,46.4515321 18.6479132,45.4551339 L3.9513115,36.7021976 L3.9513115,35.904578 C3.9513115,35.6753145 3.83172372,35.4640079 3.63677924,35.3500026 L2.29919805,34.5624054 C2.10425358,34.4484001 1.865078,34.4484001 1.67218127,34.5624054 L0.415280873,35.302396 C0.410366307,35.3061544 0.404223098,35.3078248 0.398489437,35.3124184 L0.314532259,35.3616955 C0.119178239,35.4761184 0,35.6878426 0,35.9162708 L0,37.5002349 C0,37.7307512 0.121225975,37.9420577 0.316170448,38.0560631 L1.67463855,38.8470011 C1.86630665,38.959336 2.10343448,38.959336 2.29674077,38.8470011 L2.94873993,38.4669833 L17.6437034,47.2203372 C18.2395946,47.56987 18.8711164,47.8296184 19.5214774,48 L23.2729299,48 C23.9241099,47.8296184 24.5564508,47.5686172 25.1531611,47.2182492 L39.239128,38.9267631 C41.555527,37.5632928 42.9946759,35.0209323 42.9946759,32.2935742 L42.9946759,19.439787 C42.9946759,19.126168 42.8537916,18.8305058 42.6117492,18.6371561 C42.3717546,18.4433888 42.0572223,18.3744845 41.7566147,18.4488177 L34.771787,20.1852065 L34.771787,17.5033669 C34.771787,15.4149397 33.6721527,13.4651563 31.9016801,12.4123819 L24.5978151,8.07308034 C24.2881974,7.88933549 23.9052708,7.88850029 23.5952435,8.07015712 C23.2848068,8.25223156 23.0931387,8.59007151 23.0931387,8.95463799 L23.0931387,18.8589028 L20.1374364,19.5938821 L20.1374364,8.80054288 C20.1374364,8.43597641 19.9478161,8.09980686 19.639427,7.91815002 C19.3298093,7.73524038 18.94934,7.73440518 18.6397223,7.91522681 L11.1302646,12.3004646 C9.33767644,13.346975 8.22288893,15.305528 8.22288893,17.4127473 L8.22288893,22.4907867 L2.00063813,24.0112753 L2.00063813,15.7364932 C2.00063813,13.7240695 3.06627998,11.8532129 4.78105416,10.8551443 L18.6647046,2.77496476 C20.3516296,1.79401785 22.4456445,1.79485306 24.1321599,2.77663517 L39.049098,11.4372814 L39.049098,12.2144386 C39.049098,12.4428668 39.1686858,12.6541734 39.3628112,12.7681787 L40.7012115,13.5549408 C40.8945178,13.6693637 41.1345124,13.6693637 41.3286378,13.5549408 L42.6862868,12.7564859 C42.8804122,12.6416454 43,12.4303388 43,12.2019105 L43,10.618364 C43,10.3882654 42.878774,10.175706 42.68342,10.0621183 L41.3261805,9.27201545 C41.1324647,9.15884533 40.896156,9.15884533 40.7036688,9.27201545 L40.0336495,9.66080284 L25.1232642,1.00516782 C23.9740747,0.336169546 22.6848201,0 21.3967941,0 C20.1091777,0 18.8211517,0.334916741 17.6736004,1.00349742 Z M12.1287407,34.1995093 C10.9537497,33.515895 10.2239366,32.2346923 10.2239366,30.8557707 L10.2239366,28.3889962 L32.7707393,22.7826904 L32.7707393,30.7814376 C32.7707393,32.1511719 32.0487075,33.4290338 30.886003,34.1155713 L25.0941863,37.5307198 L25.0941863,28.1747664 C25.0941863,27.8611474 24.952483,27.56465 24.7104406,27.3713003 C24.46676,27.1783682 24.15018,27.1094639 23.8516201,27.1846322 L18.8956893,28.4420316 C18.4496924,28.5556194 18.1367983,28.9644516 18.1367983,29.433001 L18.1367983,37.6985958 L12.1287407,34.1995093 Z"></path><path d="M61.4373881,38 L58.98268,38 C57.8870735,38 57,37.0861792 57,35.9599097 L57,11.6571836 C57,10.7416998 57.7209745,10 58.6100687,10 L61.4373881,10 L61.4373881,21.9998218 L64.6066047,21.9998218 C65.6415911,21.9998218 66.4809768,21.1363069 66.4809768,20.0711528 L66.4809768,10 L71,10 L71,38 L66.4809768,38 L66.4809768,25.9997624 L63.307719,25.9997624 C62.2751573,25.9997624 61.4373881,26.8611986 61.4373881,27.9234424 L61.4373881,38 Z"></path><path d="M78.7220157,28.6870388 L73,10 L77.7430814,10 L81.165221,22.7595884 L81.2474184,22.7595884 L84.6699711,10 L89,10 L83.2779843,28.6870388 C83.2717885,28.7086581 83.268071,28.7319405 83.268071,28.7552229 L83.268071,38 L80.8079306,38 C79.661297,38 78.731929,37.0645463 78.731929,35.9108201 L78.731929,28.7552229 C78.731929,28.7319405 78.7290376,28.7086581 78.7220157,28.6870388"></path><path d="M90,10 L97.2074443,10 C101.763751,10 104,12.439627 104,16.9197601 L104,31.0802399 C104,35.5599572 101.763751,38 97.2074443,38 L90,38 L90,10 Z M94.5558914,13.9999406 L94.5558914,34.0000594 L97.1244666,34.0000594 C98.5740872,34.0000594 99.4436937,33.2799786 99.4436937,31.2789689 L99.4436937,16.7197838 C99.4436937,14.7200214 98.5740872,13.9999406 97.1244666,13.9999406 L94.5558914,13.9999406 Z"></path><path d="M118.58625,38 C117.53307,38 116.677189,37.1057195 116.670087,35.9956643 C116.668508,35.6584902 116.666535,35.2123894 116.666535,34.5596603 L116.666535,30.1597672 C116.666535,27.5596603 115.799605,26.6001069 113.830171,26.6001069 L112.33307,26.6001069 L112.33307,38 L108,38 L108,10 L114.539657,10 C119.030566,10 120.960935,12.1199145 120.960935,16.4399834 L120.960935,18.639722 C120.960935,21.5196294 120.054545,23.3597434 118.124177,24.2798004 L118.124177,24.3600404 C120.291304,25.2800974 121,27.359684 121,30.280335 L121,34.5999881 C121,35.9599097 120.987373,36.4209776 120.987373,38 L118.58625,38 Z M112.33307,14.0003564 L112.33307,22.5997505 L114.027075,22.5997505 C115.642161,22.5997505 116.62747,21.8800855 116.62747,19.640019 L116.62747,16.879848 C116.62747,14.8796698 115.957444,14.0003564 114.420883,14.0003564 L112.33307,14.0003564 Z"></path><path d="M138,38 L135.325233,38 C134.376148,38 133.568723,37.2628734 133.42277,36.2638237 L132.935349,32.920354 L127.675573,32.920354 L126.935271,38 L123,38 L127.097614,11.706658 C127.251372,10.7217438 128.051383,10 128.98759,10 L133.636236,10 L138,38 Z M128.221531,29.1195581 L132.350756,29.1195581 L130.324583,14.9599097 L130.246533,14.9599097 L128.221531,29.1195581 Z"></path><path d="M140.217125,14.1473536 C140.217125,14.1927654 140.244966,14.2319136 140.299597,14.2644065 C140.354754,14.2968995 140.42567,14.3129502 140.513395,14.3129502 C140.597969,14.3129502 140.664682,14.2941591 140.713535,14.2569684 C140.762914,14.2201691 140.787603,14.1833699 140.787603,14.1473536 L140.787603,10.8561697 C140.787603,10.8150642 140.760287,10.7778735 140.705656,10.7430316 C140.650499,10.7081898 140.581159,10.6905731 140.497111,10.6905731 C140.41674,10.6905731 140.350026,10.7081898 140.296971,10.7430316 C140.243915,10.7778735 140.217125,10.8150642 140.217125,10.8561697 L140.217125,14.1473536 Z M139,10.8236768 C139,10.7136705 139.035195,10.608362 139.106636,10.5089258 C139.177552,10.4094895 139.27841,10.3221892 139.40816,10.2462418 C139.537909,10.1710774 139.6955,10.1107892 139.879881,10.0665518 C140.064787,10.0223144 140.270706,10 140.497111,10 C140.727718,10 140.935738,10.0223144 141.122746,10.0665518 C141.308703,10.1107892 141.466818,10.1702944 141.596568,10.2446759 C141.726318,10.3190573 141.826125,10.4063577 141.895465,10.5069684 C141.96533,10.6079706 142,10.7136705 142,10.8236768 L142,14.1724084 C142,14.2831976 141.964279,14.3877231 141.892838,14.4871594 C141.821923,14.5869872 141.721065,14.6742875 141.591315,14.7498434 C141.461565,14.8253993 141.303975,14.8860789 141.119594,14.9314908 C140.934687,14.9769026 140.729294,15 140.502364,15 C140.268604,15 140.059009,14.9776856 139.874628,14.9334482 C139.689722,14.8892108 139.532656,14.8289226 139.402907,14.7533667 C139.273157,14.6778108 139.17335,14.5897275 139.10401,14.4891168 C139.03467,14.3881146 139,14.2831976 139,14.1724084 L139,10.8236768 Z"></path><path d="M143.217437,10.6879657 L143.217437,12.3959346 L143.518908,12.3959346 C143.596113,12.3959346 143.659664,12.3752834 143.710609,12.3343861 C143.76208,12.2934888 143.787815,12.2505669 143.787815,12.2060253 L143.787815,10.8592485 C143.787815,10.8167315 143.759979,10.7782637 143.705357,10.7422255 C143.65021,10.7061872 143.580882,10.6879657 143.496849,10.6879657 L143.217437,10.6879657 Z M145,14.8473437 C145,14.9048429 144.984769,14.9445254 144.955882,14.9663913 C144.926471,14.9890671 144.868172,15 144.780462,15 L144.199055,15 C144.144433,15 144.091912,14.9927114 144.042542,14.9781341 C143.993697,14.9631519 143.94958,14.9425008 143.910714,14.9161808 C143.872374,14.8902656 143.842437,14.8607062 143.820378,14.8270975 C143.798319,14.7938937 143.787815,14.7570457 143.787815,14.7173631 L143.787815,13.2515387 C143.787815,13.2094266 143.759979,13.170149 143.705357,13.1341108 C143.65021,13.0984775 143.580882,13.0802559 143.496849,13.0802559 L143.217437,13.0802559 L143.217437,14.7173631 C143.217437,14.7570457 143.205882,14.7938937 143.181723,14.8270975 C143.158088,14.8607062 143.126576,14.8902656 143.088761,14.9161808 C143.05042,14.9425008 143.005252,14.9631519 142.954307,14.9781341 C142.902836,14.9927114 142.84979,15 142.795168,15 L142.219538,15 C142.131828,15 142.073004,14.9890671 142.044118,14.9663913 C142.014706,14.9445254 142,14.9048429 142,14.8473437 L142,10.1522514 C142,10.0951571 142.014706,10.0554746 142.044118,10.0332038 C142.073004,10.0109329 142.131828,10 142.219538,10 L143.524685,10 C143.75105,10 143.954832,10.0226757 144.136029,10.0688371 C144.317227,10.1145935 144.471639,10.1761419 144.599265,10.2546971 C144.727416,10.3328474 144.826155,10.4235504 144.895483,10.526401 C144.964811,10.6288468 145,10.7377713 145,10.8515549 L145,12.2169582 C145,12.350988 144.953782,12.4639618 144.862395,12.5554746 C144.771008,12.6477972 144.643382,12.7210884 144.478466,12.7753482 C144.643382,12.8097668 144.771008,12.8640266 144.862395,12.9373178 C144.953782,13.0102041 145,13.1138646 145,13.2474895 L145,14.8473437 Z"></path><path d="M146.497374,15 C146.267332,15 146.059349,14.9781079 145.875,14.9351056 C145.690651,14.8924941 145.533088,14.8334636 145.403361,14.7591869 C145.273634,14.6849101 145.173845,14.5985145 145.104517,14.4988272 C145.035189,14.3995309 145,14.2935887 145,14.1810008 L145,13.4659891 C145,13.3752932 145.069853,13.3299453 145.208508,13.3299453 L145.828782,13.3299453 C145.872374,13.3299453 145.917017,13.3338546 145.96271,13.342455 C146.008403,13.3506646 146.05042,13.3631744 146.089286,13.3795934 C146.127101,13.3964034 146.158088,13.4171228 146.181723,13.4409695 C146.205882,13.4648163 146.217962,13.4925723 146.217962,13.5238468 L146.217962,14.1450352 C146.217962,14.1856919 146.245273,14.2236122 146.299895,14.258405 C146.355042,14.2928069 146.420693,14.3100078 146.497374,14.3100078 C146.581408,14.3100078 146.650735,14.2928069 146.705357,14.258405 C146.760504,14.2236122 146.78834,14.1856919 146.78834,14.1450352 C146.78834,13.9390149 146.744223,13.7505864 146.656513,13.5793589 C146.568803,13.4081314 146.457983,13.2427678 146.32458,13.0836591 C146.191176,12.9241595 146.047794,12.7658327 145.894433,12.6078968 C145.741071,12.4499609 145.597164,12.2822518 145.463761,12.1047694 C145.329832,11.9276779 145.219538,11.7341673 145.131828,11.5246286 C145.044118,11.3150899 145,11.0801407 145,10.8189992 C145,10.7064113 145.035189,10.6004691 145.104517,10.5007819 C145.173845,10.4014855 145.273634,10.3150899 145.403361,10.2404222 C145.533088,10.1665364 145.68855,10.1075059 145.869748,10.0645035 C146.05042,10.0215012 146.252101,10 146.475315,10 C146.705357,10 146.914391,10.0215012 147.100315,10.0645035 C147.28729,10.1075059 147.446954,10.1665364 147.580882,10.2404222 C147.713761,10.3150899 147.817227,10.4014855 147.890231,10.5007819 C147.963235,10.6004691 148,10.7064113 148,10.8189992 L148,11.6051603 C148,11.6915559 147.930672,11.7345582 147.791492,11.7345582 L147.171744,11.7345582 C147.080357,11.7345582 146.993697,11.7177482 146.911239,11.6845192 C146.829307,11.6512901 146.78834,11.6032056 146.78834,11.5406568 L146.78834,10.8545739 C146.78834,10.8139171 146.760504,10.7763878 146.705357,10.741595 C146.650735,10.7071931 146.581408,10.6896013 146.497374,10.6896013 C146.41334,10.6896013 146.345588,10.7083659 146.294118,10.747068 C146.243697,10.7853792 146.217962,10.8213448 146.217962,10.8545739 C146.217962,11.0465207 146.261555,11.2224394 146.349265,11.3827209 C146.436975,11.5430023 146.546744,11.6997654 146.678571,11.8514464 C146.810399,12.0035184 146.953256,12.157545 147.108718,12.3131353 C147.264181,12.4687256 147.407563,12.6376075 147.539391,12.8197811 C147.670693,13.0015637 147.780462,13.2032838 147.868172,13.4249414 C147.955882,13.646208 148,13.898749 148,14.1810008 C148,14.2935887 147.965336,14.3995309 147.896008,14.4988272 C147.826155,14.5985145 147.726891,14.6849101 147.597164,14.7591869 C147.467437,14.8334636 147.308824,14.8924941 147.122374,14.9351056 C146.935924,14.9781079 146.727416,15 146.497374,15"></path><path d="M17.6736004,1.00349742 L3.78872126,9.08367698 C1.45225441,10.4438064 0,12.9928486 0,15.7364932 L0,25.302918 C0,25.6148666 0.140474694,25.9088584 0.380059813,26.1026257 C0.620873574,26.2968106 0.935405833,26.3665501 1.23191801,26.2951402 L7.26331981,24.8381271 L9.46627426,24.2772877 C9.91186163,24.1632824 10.2239366,23.7557029 10.2239366,23.2879887 L10.2239366,17.4127473 C10.2239366,16.0359138 10.9521115,14.7555463 12.1242357,14.0710967 L18.1367983,10.5603174 L18.1367983,20.8922065 C18.1367983,21.2066608 18.277273,21.5014877 18.5197249,21.6948374 C18.7601292,21.8886047 19.0767091,21.9591794 19.3736309,21.8840111 L24.3307903,20.6512502 C24.778835,20.5401681 25.0941863,20.1305006 25.0941863,19.6602808 L25.0941863,10.7298638 L30.8954226,14.1754972 C32.0519839,14.86287 32.7707393,16.1378086 32.7707393,17.5033669 L32.7707393,20.6825703 L8.98751357,26.5970663 C8.53905937,26.7073133 8.22288893,27.1173983 8.22288893,27.5880357 L8.22288893,30.8557707 C8.22288893,32.965078 9.33890508,34.9253015 11.1359982,35.9718119 L18.6409509,40.3407632 C18.9509782,40.5215848 19.3318571,40.5207496 19.639427,40.3370048 C19.9478161,40.1540951 20.1374364,39.8183432 20.1374364,39.4554471 L20.1374364,30.2302031 L23.0931387,29.48019 L23.0931387,39.3005168 C23.0931387,39.6650833 23.2839877,40.002088 23.5944244,40.1837448 C23.9036326,40.3658193 24.2853306,40.3658193 24.5941292,40.1829096 L31.8877555,35.8816099 C33.6672381,34.831341 34.7726061,32.8761288 34.7726061,30.7814376 L34.7726061,22.2853265 L40.9936282,20.7381114 L40.9936282,32.2935742 C40.9936282,34.2955578 39.9374059,36.1593151 38.2381946,37.1598893 L24.1522277,45.4517931 C22.4530164,46.4506969 20.34221,46.4515321 18.6479132,45.4551339 L3.9513115,36.7021976 L3.9513115,35.904578 C3.9513115,35.6753145 3.83172372,35.4640079 3.63677924,35.3500026 L2.29919805,34.5624054 C2.10425358,34.4484001 1.865078,34.4484001 1.67218127,34.5624054 L0.415280873,35.302396 C0.410366307,35.3061544 0.404223098,35.3078248 0.398489437,35.3124184 L0.314532259,35.3616955 C0.119178239,35.4761184 0,35.6878426 0,35.9162708 L0,37.5002349 C0,37.7307512 0.121225975,37.9420577 0.316170448,38.0560631 L1.67463855,38.8470011 C1.86630665,38.959336 2.10343448,38.959336 2.29674077,38.8470011 L2.94873993,38.4669833 L17.6437034,47.2203372 C18.2395946,47.56987 18.8711164,47.8296184 19.5214774,48 L23.2729299,48 C23.9241099,47.8296184 24.5564508,47.5686172 25.1531611,47.2182492 L39.239128,38.9267631 C41.555527,37.5632928 42.9946759,35.0209323 42.9946759,32.2935742 L42.9946759,19.439787 C42.9946759,19.126168 42.8537916,18.8305058 42.6117492,18.6371561 C42.3717546,18.4433888 42.0572223,18.3744845 41.7566147,18.4488177 L34.771787,20.1852065 L34.771787,17.5033669 C34.771787,15.4149397 33.6721527,13.4651563 31.9016801,12.4123819 L24.5978151,8.07308034 C24.2881974,7.88933549 23.9052708,7.88850029 23.5952435,8.07015712 C23.2848068,8.25223156 23.0931387,8.59007151 23.0931387,8.95463799 L23.0931387,18.8589028 L20.1374364,19.5938821 L20.1374364,8.80054288 C20.1374364,8.43597641 19.9478161,8.09980686 19.639427,7.91815002 C19.3298093,7.73524038 18.94934,7.73440518 18.6397223,7.91522681 L11.1302646,12.3004646 C9.33767644,13.346975 8.22288893,15.305528 8.22288893,17.4127473 L8.22288893,22.4907867 L2.00063813,24.0112753 L2.00063813,15.7364932 C2.00063813,13.7240695 3.06627998,11.8532129 4.78105416,10.8551443 L18.6647046,2.77496476 C20.3516296,1.79401785 22.4456445,1.79485306 24.1321599,2.77663517 L39.049098,11.4372814 L39.049098,12.2144386 C39.049098,12.4428668 39.1686858,12.6541734 39.3628112,12.7681787 L40.7012115,13.5549408 C40.8945178,13.6693637 41.1345124,13.6693637 41.3286378,13.5549408 L42.6862868,12.7564859 C42.8804122,12.6416454 43,12.4303388 43,12.2019105 L43,10.618364 C43,10.3882654 42.878774,10.175706 42.68342,10.0621183 L41.3261805,9.27201545 C41.1324647,9.15884533 40.896156,9.15884533 40.7036688,9.27201545 L40.0336495,9.66080284 L25.1232642,1.00516782 C23.9740747,0.336169546 22.6848201,0 21.3967941,0 C20.1091777,0 18.8211517,0.334916741 17.6736004,1.00349742 Z M12.1287407,34.1995093 C10.9537497,33.515895 10.2239366,32.2346923 10.2239366,30.8557707 L10.2239366,28.3889962 L32.7707393,22.7826904 L32.7707393,30.7814376 C32.7707393,32.1511719 32.0487075,33.4290338 30.886003,34.1155713 L25.0941863,37.5307198 L25.0941863,28.1747664 C25.0941863,27.8611474 24.952483,27.56465 24.7104406,27.3713003 C24.46676,27.1783682 24.15018,27.1094639 23.8516201,27.1846322 L18.8956893,28.4420316 C18.4496924,28.5556194 18.1367983,28.9644516 18.1367983,29.433001 L18.1367983,37.6985958 L12.1287407,34.1995093 Z"></path></g></g></g></g></svg>
